HIERARCHY
ROOT ui
{
	 OFFSET 0 0 0
	 CHANNELS 3 XPosition YPosition Z Position
	 EndSite
	 {
	 OFFSET 0 -1 0
	 }
}
ROOT li
{
	 OFFSET 0 0 0
	 CHANNELS 3 XPosition YPosition Z Position
	 EndSite
	 {
	 OFFSET 0 -1 0
	 }
}
ROOT ul
{
	 OFFSET 0 0 0
	 CHANNELS 3 XPosition YPosition Z Position
	 EndSite
	 {
	 OFFSET 0 -1 0
	 }
}
ROOT ll
{
	 OFFSET 0 0 0
	 CHANNELS 3 XPosition YPosition Z Position
	 EndSite
	 {
	 OFFSET 0 -1 0
	 }
}
ROOT tt
{
	 OFFSET 0 0 0
	 CHANNELS 3 XPosition YPosition Z Position
	 EndSite
	 {
	 OFFSET 0 -1 0
	 }
}
ROOT tb
{
	 OFFSET 0 0 0
	 CHANNELS 3 XPosition YPosition Z Position
	 EndSite
	 {
	 OFFSET 0 -1 0
	 }
}
ROOT td
{
	 OFFSET 0 0 0
	 CHANNELS 3 XPosition YPosition Z Position
	 EndSite
	 {
	 OFFSET 0 -1 0
	 }
}
ROOT v
{
	 OFFSET 0 0 0
	 CHANNELS 3 XPosition YPosition Z Position
	 EndSite
	 {
	 OFFSET 0 -1 0
	 }
}
ROOT bn
{
	 OFFSET 0 0 0
	 CHANNELS 3 XPosition YPosition Z Position
	 EndSite
	 {
	 OFFSET 0 -1 0
	 }
}
MOTION
Frames: 10
Frame Time: 0.002
0.003602272033691406	-4.4887900352478025E-4	0		0.5463375854492187	-2.517169677734375	0		-0.9388970947265625	0.09479779815673828	0		-0.3392344970703125	-2.716947265625	0		1.284030029296875	-0.9156372680664062	0		2.9484609375	-0.20819862365722655	0		4.69974609375	0.19969972229003907	0		5.63948876953125	0.20848715209960939	0		-0.2156318359375	5.91020361328125	0		
0.0018927860260009766	-3.794100135564804E-5	0		0.5432125244140625	-2.518591064453125	0		-0.9725574340820312	0.09951996612548829	0		-0.3732211303710937	-2.713060546875	0		1.2825452880859376	-0.914911865234375	0		2.971900634765625	-0.20148976135253907	0		4.6900224609375	0.2033994903564453	0		5.63829638671875	0.21156124877929688	0		-0.21879287719726562	5.910560546875	0		
-0.003836893081665039	-0.0035656940937042235	0		0.5421818237304687	-2.51805029296875	0		-0.9783120727539063	0.09574741363525391	0		-0.342291015625	-2.718284423828125	0		1.27501220703125	-0.9200841064453125	0		2.931343505859375	-0.19668698120117187	0		4.6883076171875	0.20498196411132813	0		5.63713720703125	0.21467881774902345	0		-0.3552736511230469	5.89213720703125	0		
-0.0013776240348815918	7.637789845466613E-4	0		0.5001985168457032	-2.517841064453125	0		-0.9599788208007812	0.09356853485107422	0		-0.35139309692382814	-2.72884033203125	0		1.279735107421875	-0.913465576171875	0		2.944783935546875	-0.1957984619140625	0		4.6915166015625	0.19847906494140624	0		5.62888671875	0.21807559204101562	0		-0.3773135070800781	5.8957568359375	0		
0.012160906791687012	0.005907382965087891	0		0.5572926635742188	-2.517269775390625	0		-0.9633961791992187	0.10274911499023437	0		-0.3600430908203125	-2.71541162109375	0		1.2814862060546874	-0.90880859375	0		2.961208740234375	-0.19996975708007814	0		4.6871376953125	0.21308041381835938	0		5.6408125	0.24484584045410157	0		-0.3442757873535156	5.89846630859375	0		
-0.004382569789886475	0.0015281230211257935	0		0.515522705078125	-2.511102783203125	0		-0.9748677978515625	0.10405315399169922	0		-0.3757683410644531	-2.709882080078125	0		1.274130859375	-0.9150243530273438	0		2.9609365234375	-0.18989306640625	0		4.69150927734375	0.20749676513671875	0		5.6297275390625	0.23610769653320313	0		-0.34911862182617187	5.9017919921875	0		
0.02413993263244629	-0.004580117225646972	0		0.538646484375	-2.51599560546875	0		-0.9402911376953125	0.10262393188476562	0		-0.3775479736328125	-2.7115888671875	0		1.26401318359375	-0.9112218017578125	0		2.93143212890625	-0.1993970184326172	0		4.68698779296875	0.20300114440917968	0		5.63296728515625	0.22670175170898438	0		-0.2327125244140625	5.91119921875	0		
-0.006188930988311768	-0.006774707794189453	0		0.4860161437988281	-2.50872021484375	0		-0.9775807495117188	0.10432404327392578	0		-0.3673755187988281	-2.720492919921875	0		1.2629281005859374	-0.9105926513671875	0		2.9451875	-0.19863163757324218	0		4.6766884765625	0.2065276641845703	0		5.63207177734375	0.22943434143066407	0		-0.36863360595703126	5.8915654296875	0		
0.016742517471313476	0.0011877379417419434	0		0.5481572875976563	-2.52125048828125	0		-0.9629013061523437	0.09720864868164063	0		-0.3659686279296875	-2.718267822265625	0		1.2678353271484375	-0.9160885620117187	0		2.9519921875	-0.20080848693847655	0		4.67931689453125	0.19877316284179689	0		5.62411279296875	0.2322747344970703	0		-0.3909705505371094	5.89712646484375	0		
-0.0044054827690124514	-0.0021914379596710207	0		0.49766680908203126	-2.51307421875	0		-0.9640095825195313	0.09733704376220703	0		-0.36450259399414064	-2.716054443359375	0		1.26611962890625	-0.9025152587890625	0		2.922095947265625	-0.18948561096191407	0		4.6763857421875	0.21302117919921876	0		5.626283203125	0.24667726135253906	0		-0.35812860107421873	5.90183544921875	0		
